<?xml version="1.0" standalone="no"?>
<!DOCTYPE svg PUBLIC "-//W3C//DTD SVG 20010904//EN"
 "http://www.w3.org/TR/2001/REC-SVG-20010904/DTD/svg10.dtd">
<svg version="1.0" xmlns="http://www.w3.org/2000/svg"
 width="225.000000pt" height="225.000000pt" viewBox="0 0 225.000000 225.000000"
 preserveAspectRatio="xMidYMid meet">
<metadata>
Created by potrace 1.11, written by Peter Selinger 2001-2013
</metadata>
<g transform="translate(0.000000,225.000000) scale(0.100000,-0.100000)"
fill="#000000" stroke="none">
<path d="M933 2096 c-95 -18 -192 -51 -278 -94 -206 -102 -395 -307 -476 -517
-51 -130 -86 -333 -60 -349 16 -10 20 -110 5 -126 -11 -13 -11 -27 1 -85 87
-414 390 -713 802 -791 117 -22 304 -15 423 15 362 93 647 392 726 759 14 66
15 88 6 103 -17 26 -15 107 2 125 18 17 13 92 -14 209 -81 351 -363 640 -716
731 -123 32 -311 41 -421 20z m274 -541 c72 -36 123 -117 123 -195 0 -82 -66
-175 -146 -206 -143 -54 -303 64 -292 218 11 159 173 253 315 183z m-357 -354
c6 -16 32 -50 58 -75 134 -134 346 -106 451 59 l26 41 80 -13 c205 -34 539
-152 583 -206 26 -31 -41 -250 -115 -376 -94 -158 -226 -280 -398 -366 -164
-83 -235 -99 -435 -99 -190 0 -259 15 -406 83 -281 132 -487 396 -543 697 -8
40 -6 50 7 62 34 27 183 93 298 132 97 32 323 87 370 89 6 1 17 -12 24 -28z"/>
<path d="M1018 1540 c-105 -56 -125 -200 -39 -290 147 -154 395 33 291 219
-25 44 -91 91 -126 91 -10 -1 -2 -7 19 -15 82 -29 121 -89 115 -176 -7 -104
-80 -165 -185 -157 -93 8 -153 72 -153 165 0 84 40 141 117 168 21 8 29 14 18
14 -11 0 -37 -9 -57 -19z"/>
</g>
</svg>
